<?xml version="1.0" standalone="no"?>
<!DOCTYPE svg PUBLIC "-//W3C//DTD SVG 20010904//EN"
 "http://www.w3.org/TR/2001/REC-SVG-20010904/DTD/svg10.dtd">
<svg version="1.0" xmlns="http://www.w3.org/2000/svg"
 width="16.000000pt" height="16.000000pt" viewBox="0 0 16.000000 16.000000"
 preserveAspectRatio="xMidYMid meet">
<metadata>
Created by potrace 1.11, written by Peter Selinger 2001-2013
</metadata>
<g transform="translate(0.000000,16.000000) scale(0.006202,-0.006202)"
fill="#000000" stroke="none">
<path d="M1851 2559 c-82 -16 -186 -73 -255 -141 -114 -113 -161 -233 -154
-401 l3 -89 -220 -129 c-121 -71 -223 -129 -227 -129 -4 0 -28 16 -53 35 -167
127 -419 134 -586 17 -62 -44 -91 -70 -132 -125 -70 -93 -99 -183 -99 -308 2
-272 206 -485 483 -503 116 -8 227 24 322 92 l47 34 233 -143 232 -143 -2 -90
c-8 -474 574 -699 895 -346 41 46 92 146 111 219 45 179 -18 381 -157 501 -26
23 -82 58 -124 78 l-77 37 -1 272 0 271 31 7 c18 4 57 22 88 40 209 124 302
364 232 595 -75 245 -335 399 -590 349z m295 -104 c164 -80 257 -234 250 -417
-8 -206 -147 -369 -354 -418 -59 -14 -167 -9 -220 10 l-33 12 68 40 c87 50
111 73 135 125 49 110 4 261 -99 327 -99 63 -166 59 -298 -18 l-93 -54 5 37
c14 112 63 211 141 282 142 130 326 157 498 74z m-322 -476 c24 -27 27 -38 23
-71 -3 -22 -13 -48 -23 -59 -16 -18 -113 -81 -204 -132 -110 -61 -374 -215
-426 -247 l-60 -38 -17 47 c-9 26 -30 67 -46 91 -16 24 -28 47 -25 51 2 4 100
63 216 131 117 67 221 128 230 133 60 36 160 92 198 113 56 29 94 24 134 -19z
m-1079 -254 c154 -40 269 -157 319 -323 l16 -54 -28 18 c-136 90 -180 100
-272 65 -98 -37 -164 -121 -176 -223 -13 -110 24 -172 151 -254 41 -27 75 -51
75 -55 0 -12 -103 -41 -167 -46 -208 -16 -393 119 -458 333 -18 62 -12 187 12
256 79 217 308 340 528 283z m921 -92 c14 -9 40 -24 57 -33 l32 -17 2 -291 3
-292 -43 -19 c-23 -11 -57 -31 -75 -44 l-33 -25 -147 90 c-81 50 -159 99 -174
109 -14 11 -29 19 -32 19 -4 0 -30 16 -59 35 l-52 34 3 89 3 89 77 43 c42 24
121 70 175 102 53 32 100 58 102 58 3 0 28 16 57 34 61 40 70 42 104 19z m288
-85 l76 -2 0 -379 c-1 -208 -3 -392 -7 -408 -19 -99 -157 -108 -194 -12 -5 13
-9 197 -9 419 l0 396 29 -7 c16 -3 63 -7 105 -7z m-748 -459 c159 -99 305
-190 325 -201 l37 -21 -32 -41 c-17 -23 -40 -61 -50 -86 -11 -25 -21 -47 -22
-49 -7 -9 -623 378 -667 419 -75 71 -10 196 89 168 17 -4 161 -90 320 -189z
m1057 -244 c167 -170 171 -442 8 -613 -61 -65 -99 -90 -179 -118 -121 -43
-260 -29 -373 38 -161 95 -242 279 -204 462 19 88 49 148 107 210 l47 51 1
-93 c0 -106 16 -150 72 -197 100 -85 236 -90 344 -13 67 48 87 95 90 213 1 55
3 106 3 113 1 19 31 1 84 -53z"/>
</g>
</svg>
